<svg xmlns="http://www.w3.org/2000/svg" width="660" height="400" viewBox="0 0 660 400"><defs>
<filter id="wobble" x="-5%" y="-5%" width="110%" height="110%"><feTurbulence type="fractalNoise" baseFrequency="0.035" numOctaves="2" seed="3"/><feDisplacementMap in="SourceGraphic" scale="2.6"/></filter>
<filter id="pencil" x="-5%" y="-5%" width="110%" height="110%"><feTurbulence type="fractalNoise" baseFrequency="0.035" numOctaves="2" seed="7" result="n"/><feDisplacementMap in="SourceGraphic" in2="n" scale="2.4" result="d"/><feTurbulence type="fractalNoise" baseFrequency="1.4" numOctaves="1" seed="2" result="g"/><feColorMatrix in="g" type="matrix" values="0 0 0 0 0  0 0 0 0 0  0 0 0 0 0  0 0 0 -1.6 1.5" result="ga"/><feComposite in="d" in2="ga" operator="in"/></filter>
<filter id="wash" x="-20%" y="-20%" width="140%" height="140%"><feTurbulence type="fractalNoise" baseFrequency="0.02" numOctaves="3" seed="11"/><feDisplacementMap in="SourceGraphic" scale="22"/><feGaussianBlur stdDeviation="1.2"/></filter>
<filter id="grain"><feTurbulence type="fractalNoise" baseFrequency="0.9" numOctaves="2" seed="5"/><feColorMatrix type="matrix" values="0 0 0 0 0.35  0 0 0 0 0.3  0 0 0 0 0.2  0 0 0 0.09 0"/></filter>
<pattern id="grid" width="20" height="20" patternUnits="userSpaceOnUse"><path d="M20 0V20H0" fill="none" stroke="#e6dfd1" stroke-width="1"/></pattern>
<pattern id="grid5" width="100" height="100" patternUnits="userSpaceOnUse"><path d="M100 0V100H0" fill="none" stroke="#d8cdb8" stroke-width="1"/></pattern>
<pattern id="eng" width="16" height="16" patternUnits="userSpaceOnUse"><path d="M16 0V16H0" fill="none" stroke="#cfdbe6" stroke-width=".8"/></pattern>
<pattern id="dots" width="20" height="20" patternUnits="userSpaceOnUse"><circle cx="10" cy="10" r=".9" fill="#cbbfa8"/></pattern>
</defs><g transform="translate(0 -28)"><rect y="28" width="660" height="400" fill="#f8f6ef"/><rect y="28" width="660" height="400" fill="url(#eng)"/><rect y="28" width="660" height="400" filter="url(#grain)"/>
<g stroke="#3d3d3d" fill="none" stroke-linecap="round" filter="url(#pencil)"><path d="M10 44 H652 M16 38 V420 M8 412 H648 M644 34 V418" stroke-width="1.2"/><path d="M12 46 H640" stroke-width=".5" opacity=".6"/></g>
<g stroke="#3d3d3d" fill="none" stroke-linecap="round" filter="url(#pencil)"><path d="M170 156 V116 M490 156 V116" stroke-width="1"/><path d="M160 130 H292 M368 130 H500" stroke-width="1.3"/><path d="M164 131.2 H290 M370 129 H497" stroke-width=".6" opacity=".6"/><path d="M184 123 L171 130 L184 137 M476 123 L489 130 L476 137" stroke-width="1.4"/></g>
<text x="330" y="138" text-anchor="middle" font-size="19" fill="#3d3d3d" font-family="Bradley Hand, Noteworthy, cursive">1 drag</text>
<clipPath id="cb"><circle cx="78" cy="332" r="36"/></clipPath><g clip-path="url(#cb)" filter="url(#pencil)"><g transform="translate(78 332) rotate(45)" stroke="#3d3d3d" stroke-width=".7"><rect x="-52.0" y="-52.0" width="13.0" height="6.5" fill="none"/><rect x="-52.0" y="-45.5" width="6.5" height="13.0" fill="none"/><path d="M-52.0 -42.2 L-50.5 -45.5" stroke-width=".4"/><path d="M-52.0 -39.0 L-49.1 -45.5" stroke-width=".4"/><path d="M-52.0 -35.8 L-47.6 -45.5" stroke-width=".4"/><rect x="-45.5" y="-45.5" width="13.0" height="6.5" fill="none"/><rect x="-45.5" y="-39.0" width="6.5" height="13.0" fill="none"/><path d="M-45.5 -35.8 L-44.0 -39.0" stroke-width=".4"/><path d="M-45.5 -32.5 L-42.6 -39.0" stroke-width=".4"/><path d="M-45.5 -29.2 L-41.1 -39.0" stroke-width=".4"/><rect x="-32.5" y="-52.0" width="6.5" height="13.0" fill="none"/><path d="M-32.5 -48.8 L-31.0 -52.0" stroke-width=".4"/><path d="M-32.5 -45.5 L-29.6 -52.0" stroke-width=".4"/><path d="M-32.5 -42.2 L-28.1 -52.0" stroke-width=".4"/><rect x="-52.0" y="-26.0" width="13.0" height="6.5" fill="none"/><rect x="-52.0" y="-19.5" width="6.5" height="13.0" fill="none"/><path d="M-52.0 -16.2 L-50.5 -19.5" stroke-width=".4"/><path d="M-52.0 -13.0 L-49.1 -19.5" stroke-width=".4"/><path d="M-52.0 -9.8 L-47.6 -19.5" stroke-width=".4"/><rect x="-39.0" y="-39.0" width="13.0" height="6.5" fill="none"/><rect x="-39.0" y="-32.5" width="6.5" height="13.0" fill="none"/><path d="M-39.0 -29.2 L-37.5 -32.5" stroke-width=".4"/><path d="M-39.0 -26.0 L-36.1 -32.5" stroke-width=".4"/><path d="M-39.0 -22.8 L-34.6 -32.5" stroke-width=".4"/><rect x="-26.0" y="-52.0" width="13.0" height="6.5" fill="none"/><rect x="-26.0" y="-45.5" width="6.5" height="13.0" fill="none"/><path d="M-26.0 -42.2 L-24.5 -45.5" stroke-width=".4"/><path d="M-26.0 -39.0 L-23.1 -45.5" stroke-width=".4"/><path d="M-26.0 -35.8 L-21.6 -45.5" stroke-width=".4"/><rect x="-45.5" y="-19.5" width="13.0" height="6.5" fill="none"/><rect x="-45.5" y="-13.0" width="6.5" height="13.0" fill="none"/><path d="M-45.5 -9.8 L-44.0 -13.0" stroke-width=".4"/><path d="M-45.5 -6.5 L-42.6 -13.0" stroke-width=".4"/><path d="M-45.5 -3.2 L-41.1 -13.0" stroke-width=".4"/><rect x="-32.5" y="-32.5" width="13.0" height="6.5" fill="none"/><rect x="-32.5" y="-26.0" width="6.5" height="13.0" fill="none"/><path d="M-32.5 -22.8 L-31.0 -26.0" stroke-width=".4"/><path d="M-32.5 -19.5 L-29.6 -26.0" stroke-width=".4"/><path d="M-32.5 -16.2 L-28.1 -26.0" stroke-width=".4"/><rect x="-19.5" y="-45.5" width="13.0" height="6.5" fill="none"/><rect x="-19.5" y="-39.0" width="6.5" height="13.0" fill="none"/><path d="M-19.5 -35.8 L-18.0 -39.0" stroke-width=".4"/><path d="M-19.5 -32.5 L-16.6 -39.0" stroke-width=".4"/><path d="M-19.5 -29.2 L-15.1 -39.0" stroke-width=".4"/><rect x="-6.5" y="-52.0" width="6.5" height="13.0" fill="none"/><path d="M-6.5 -48.8 L-5.0 -52.0" stroke-width=".4"/><path d="M-6.5 -45.5 L-3.6 -52.0" stroke-width=".4"/><path d="M-6.5 -42.2 L-2.1 -52.0" stroke-width=".4"/><rect x="-52.0" y="0.0" width="13.0" height="6.5" fill="none"/><rect x="-52.0" y="6.5" width="6.5" height="13.0" fill="none"/><path d="M-52.0 9.8 L-50.5 6.5" stroke-width=".4"/><path d="M-52.0 13.0 L-49.1 6.5" stroke-width=".4"/><path d="M-52.0 16.2 L-47.6 6.5" stroke-width=".4"/><rect x="-39.0" y="-13.0" width="13.0" height="6.5" fill="none"/><rect x="-39.0" y="-6.5" width="6.5" height="13.0" fill="none"/><path d="M-39.0 -3.2 L-37.5 -6.5" stroke-width=".4"/><path d="M-39.0 0.0 L-36.1 -6.5" stroke-width=".4"/><path d="M-39.0 3.2 L-34.6 -6.5" stroke-width=".4"/><rect x="-26.0" y="-26.0" width="13.0" height="6.5" fill="none"/><rect x="-26.0" y="-19.5" width="6.5" height="13.0" fill="none"/><path d="M-26.0 -16.2 L-24.5 -19.5" stroke-width=".4"/><path d="M-26.0 -13.0 L-23.1 -19.5" stroke-width=".4"/><path d="M-26.0 -9.8 L-21.6 -19.5" stroke-width=".4"/><rect x="-13.0" y="-39.0" width="13.0" height="6.5" fill="none"/><rect x="-13.0" y="-32.5" width="6.5" height="13.0" fill="none"/><path d="M-13.0 -29.2 L-11.5 -32.5" stroke-width=".4"/><path d="M-13.0 -26.0 L-10.1 -32.5" stroke-width=".4"/><path d="M-13.0 -22.8 L-8.6 -32.5" stroke-width=".4"/><rect x="0.0" y="-52.0" width="13.0" height="6.5" fill="none"/><rect x="0.0" y="-45.5" width="6.5" height="13.0" fill="none"/><path d="M0.0 -42.2 L1.5 -45.5" stroke-width=".4"/><path d="M0.0 -39.0 L2.9 -45.5" stroke-width=".4"/><path d="M0.0 -35.8 L4.4 -45.5" stroke-width=".4"/><rect x="-45.5" y="6.5" width="13.0" height="6.5" fill="none"/><rect x="-45.5" y="13.0" width="6.5" height="13.0" fill="none"/><path d="M-45.5 16.2 L-44.0 13.0" stroke-width=".4"/><path d="M-45.5 19.5 L-42.6 13.0" stroke-width=".4"/><path d="M-45.5 22.8 L-41.1 13.0" stroke-width=".4"/><rect x="-32.5" y="-6.5" width="13.0" height="6.5" fill="none"/><rect x="-32.5" y="0.0" width="6.5" height="13.0" fill="none"/><path d="M-32.5 3.2 L-31.0 0.0" stroke-width=".4"/><path d="M-32.5 6.5 L-29.6 0.0" stroke-width=".4"/><path d="M-32.5 9.8 L-28.1 0.0" stroke-width=".4"/><rect x="-19.5" y="-19.5" width="13.0" height="6.5" fill="none"/><rect x="-19.5" y="-13.0" width="6.5" height="13.0" fill="none"/><path d="M-19.5 -9.8 L-18.0 -13.0" stroke-width=".4"/><path d="M-19.5 -6.5 L-16.6 -13.0" stroke-width=".4"/><path d="M-19.5 -3.2 L-15.1 -13.0" stroke-width=".4"/><rect x="-6.5" y="-32.5" width="13.0" height="6.5" fill="none"/><rect x="-6.5" y="-26.0" width="6.5" height="13.0" fill="none"/><path d="M-6.5 -22.8 L-5.0 -26.0" stroke-width=".4"/><path d="M-6.5 -19.5 L-3.6 -26.0" stroke-width=".4"/><path d="M-6.5 -16.2 L-2.1 -26.0" stroke-width=".4"/><rect x="6.5" y="-45.5" width="13.0" height="6.5" fill="none"/><rect x="6.5" y="-39.0" width="6.5" height="13.0" fill="none"/><path d="M6.5 -35.8 L8.0 -39.0" stroke-width=".4"/><path d="M6.5 -32.5 L9.4 -39.0" stroke-width=".4"/><path d="M6.5 -29.2 L10.9 -39.0" stroke-width=".4"/><rect x="19.5" y="-52.0" width="6.5" height="13.0" fill="none"/><path d="M19.5 -48.8 L21.0 -52.0" stroke-width=".4"/><path d="M19.5 -45.5 L22.4 -52.0" stroke-width=".4"/><path d="M19.5 -42.2 L23.9 -52.0" stroke-width=".4"/><rect x="-52.0" y="26.0" width="13.0" height="6.5" fill="none"/><rect x="-52.0" y="32.5" width="6.5" height="13.0" fill="none"/><path d="M-52.0 35.8 L-50.5 32.5" stroke-width=".4"/><path d="M-52.0 39.0 L-49.1 32.5" stroke-width=".4"/><path d="M-52.0 42.2 L-47.6 32.5" stroke-width=".4"/><rect x="-39.0" y="13.0" width="13.0" height="6.5" fill="none"/><rect x="-39.0" y="19.5" width="6.5" height="13.0" fill="none"/><path d="M-39.0 22.8 L-37.5 19.5" stroke-width=".4"/><path d="M-39.0 26.0 L-36.1 19.5" stroke-width=".4"/><path d="M-39.0 29.2 L-34.6 19.5" stroke-width=".4"/><rect x="-26.0" y="0.0" width="13.0" height="6.5" fill="none"/><rect x="-26.0" y="6.5" width="6.5" height="13.0" fill="none"/><path d="M-26.0 9.8 L-24.5 6.5" stroke-width=".4"/><path d="M-26.0 13.0 L-23.1 6.5" stroke-width=".4"/><path d="M-26.0 16.2 L-21.6 6.5" stroke-width=".4"/><rect x="-13.0" y="-13.0" width="13.0" height="6.5" fill="none"/><rect x="-13.0" y="-6.5" width="6.5" height="13.0" fill="none"/><path d="M-13.0 -3.2 L-11.5 -6.5" stroke-width=".4"/><path d="M-13.0 0.0 L-10.1 -6.5" stroke-width=".4"/><path d="M-13.0 3.2 L-8.6 -6.5" stroke-width=".4"/><rect x="0.0" y="-26.0" width="13.0" height="6.5" fill="none"/><rect x="0.0" y="-19.5" width="6.5" height="13.0" fill="none"/><path d="M0.0 -16.2 L1.5 -19.5" stroke-width=".4"/><path d="M0.0 -13.0 L2.9 -19.5" stroke-width=".4"/><path d="M0.0 -9.8 L4.4 -19.5" stroke-width=".4"/><rect x="13.0" y="-39.0" width="13.0" height="6.5" fill="none"/><rect x="13.0" y="-32.5" width="6.5" height="13.0" fill="none"/><path d="M13.0 -29.2 L14.5 -32.5" stroke-width=".4"/><path d="M13.0 -26.0 L15.9 -32.5" stroke-width=".4"/><path d="M13.0 -22.8 L17.4 -32.5" stroke-width=".4"/><rect x="26.0" y="-52.0" width="13.0" height="6.5" fill="none"/><rect x="26.0" y="-45.5" width="6.5" height="13.0" fill="none"/><path d="M26.0 -42.2 L27.5 -45.5" stroke-width=".4"/><path d="M26.0 -39.0 L28.9 -45.5" stroke-width=".4"/><path d="M26.0 -35.8 L30.4 -45.5" stroke-width=".4"/><rect x="-45.5" y="32.5" width="13.0" height="6.5" fill="none"/><rect x="-45.5" y="39.0" width="6.5" height="13.0" fill="none"/><path d="M-45.5 42.2 L-44.0 39.0" stroke-width=".4"/><path d="M-45.5 45.5 L-42.6 39.0" stroke-width=".4"/><path d="M-45.5 48.8 L-41.1 39.0" stroke-width=".4"/><rect x="-32.5" y="19.5" width="13.0" height="6.5" fill="none"/><rect x="-32.5" y="26.0" width="6.5" height="13.0" fill="none"/><path d="M-32.5 29.2 L-31.0 26.0" stroke-width=".4"/><path d="M-32.5 32.5 L-29.6 26.0" stroke-width=".4"/><path d="M-32.5 35.8 L-28.1 26.0" stroke-width=".4"/><rect x="-19.5" y="6.5" width="13.0" height="6.5" fill="none"/><rect x="-19.5" y="13.0" width="6.5" height="13.0" fill="none"/><path d="M-19.5 16.2 L-18.0 13.0" stroke-width=".4"/><path d="M-19.5 19.5 L-16.6 13.0" stroke-width=".4"/><path d="M-19.5 22.8 L-15.1 13.0" stroke-width=".4"/><rect x="-6.5" y="-6.5" width="13.0" height="6.5" fill="none"/><rect x="-6.5" y="0.0" width="6.5" height="13.0" fill="none"/><path d="M-6.5 3.2 L-5.0 0.0" stroke-width=".4"/><path d="M-6.5 6.5 L-3.6 0.0" stroke-width=".4"/><path d="M-6.5 9.8 L-2.1 0.0" stroke-width=".4"/><rect x="6.5" y="-19.5" width="13.0" height="6.5" fill="none"/><rect x="6.5" y="-13.0" width="6.5" height="13.0" fill="none"/><path d="M6.5 -9.8 L8.0 -13.0" stroke-width=".4"/><path d="M6.5 -6.5 L9.4 -13.0" stroke-width=".4"/><path d="M6.5 -3.2 L10.9 -13.0" stroke-width=".4"/><rect x="19.5" y="-32.5" width="13.0" height="6.5" fill="none"/><rect x="19.5" y="-26.0" width="6.5" height="13.0" fill="none"/><path d="M19.5 -22.8 L21.0 -26.0" stroke-width=".4"/><path d="M19.5 -19.5 L22.4 -26.0" stroke-width=".4"/><path d="M19.5 -16.2 L23.9 -26.0" stroke-width=".4"/><rect x="32.5" y="-45.5" width="13.0" height="6.5" fill="none"/><rect x="32.5" y="-39.0" width="6.5" height="13.0" fill="none"/><path d="M32.5 -35.8 L34.0 -39.0" stroke-width=".4"/><path d="M32.5 -32.5 L35.4 -39.0" stroke-width=".4"/><path d="M32.5 -29.2 L36.9 -39.0" stroke-width=".4"/><rect x="45.5" y="-52.0" width="6.5" height="13.0" fill="none"/><path d="M45.5 -48.8 L47.0 -52.0" stroke-width=".4"/><path d="M45.5 -45.5 L48.4 -52.0" stroke-width=".4"/><path d="M45.5 -42.2 L49.9 -52.0" stroke-width=".4"/><rect x="-52.0" y="52.0" width="13.0" height="6.5" fill="none"/><rect x="-39.0" y="39.0" width="13.0" height="6.5" fill="none"/><rect x="-39.0" y="45.5" width="6.5" height="13.0" fill="none"/><path d="M-39.0 48.8 L-37.5 45.5" stroke-width=".4"/><path d="M-39.0 52.0 L-36.1 45.5" stroke-width=".4"/><path d="M-39.0 55.2 L-34.6 45.5" stroke-width=".4"/><rect x="-26.0" y="26.0" width="13.0" height="6.5" fill="none"/><rect x="-26.0" y="32.5" width="6.5" height="13.0" fill="none"/><path d="M-26.0 35.8 L-24.5 32.5" stroke-width=".4"/><path d="M-26.0 39.0 L-23.1 32.5" stroke-width=".4"/><path d="M-26.0 42.2 L-21.6 32.5" stroke-width=".4"/><rect x="-13.0" y="13.0" width="13.0" height="6.5" fill="none"/><rect x="-13.0" y="19.5" width="6.5" height="13.0" fill="none"/><path d="M-13.0 22.8 L-11.5 19.5" stroke-width=".4"/><path d="M-13.0 26.0 L-10.1 19.5" stroke-width=".4"/><path d="M-13.0 29.2 L-8.6 19.5" stroke-width=".4"/><rect x="0.0" y="0.0" width="13.0" height="6.5" fill="none"/><rect x="0.0" y="6.5" width="6.5" height="13.0" fill="none"/><path d="M0.0 9.8 L1.5 6.5" stroke-width=".4"/><path d="M0.0 13.0 L2.9 6.5" stroke-width=".4"/><path d="M0.0 16.2 L4.4 6.5" stroke-width=".4"/><rect x="13.0" y="-13.0" width="13.0" height="6.5" fill="none"/><rect x="13.0" y="-6.5" width="6.5" height="13.0" fill="none"/><path d="M13.0 -3.2 L14.5 -6.5" stroke-width=".4"/><path d="M13.0 0.0 L15.9 -6.5" stroke-width=".4"/><path d="M13.0 3.2 L17.4 -6.5" stroke-width=".4"/><rect x="26.0" y="-26.0" width="13.0" height="6.5" fill="none"/><rect x="26.0" y="-19.5" width="6.5" height="13.0" fill="none"/><path d="M26.0 -16.2 L27.5 -19.5" stroke-width=".4"/><path d="M26.0 -13.0 L28.9 -19.5" stroke-width=".4"/><path d="M26.0 -9.8 L30.4 -19.5" stroke-width=".4"/><rect x="39.0" y="-39.0" width="13.0" height="6.5" fill="none"/><rect x="39.0" y="-32.5" width="6.5" height="13.0" fill="none"/><path d="M39.0 -29.2 L40.5 -32.5" stroke-width=".4"/><path d="M39.0 -26.0 L41.9 -32.5" stroke-width=".4"/><path d="M39.0 -22.8 L43.4 -32.5" stroke-width=".4"/><rect x="52.0" y="-52.0" width="13.0" height="6.5" fill="none"/><rect x="52.0" y="-45.5" width="6.5" height="13.0" fill="none"/><path d="M52.0 -42.2 L53.5 -45.5" stroke-width=".4"/><path d="M52.0 -39.0 L54.9 -45.5" stroke-width=".4"/><path d="M52.0 -35.8 L56.4 -45.5" stroke-width=".4"/><rect x="-32.5" y="45.5" width="13.0" height="6.5" fill="none"/><rect x="-32.5" y="52.0" width="6.5" height="13.0" fill="none"/><path d="M-32.5 55.2 L-31.0 52.0" stroke-width=".4"/><path d="M-32.5 58.5 L-29.6 52.0" stroke-width=".4"/><path d="M-32.5 61.8 L-28.1 52.0" stroke-width=".4"/><rect x="-19.5" y="32.5" width="13.0" height="6.5" fill="none"/><rect x="-19.5" y="39.0" width="6.5" height="13.0" fill="none"/><path d="M-19.5 42.2 L-18.0 39.0" stroke-width=".4"/><path d="M-19.5 45.5 L-16.6 39.0" stroke-width=".4"/><path d="M-19.5 48.8 L-15.1 39.0" stroke-width=".4"/><rect x="-6.5" y="19.5" width="13.0" height="6.5" fill="none"/><rect x="-6.5" y="26.0" width="6.5" height="13.0" fill="none"/><path d="M-6.5 29.2 L-5.0 26.0" stroke-width=".4"/><path d="M-6.5 32.5 L-3.6 26.0" stroke-width=".4"/><path d="M-6.5 35.8 L-2.1 26.0" stroke-width=".4"/><rect x="6.5" y="6.5" width="13.0" height="6.5" fill="none"/><rect x="6.5" y="13.0" width="6.5" height="13.0" fill="none"/><path d="M6.5 16.2 L8.0 13.0" stroke-width=".4"/><path d="M6.5 19.5 L9.4 13.0" stroke-width=".4"/><path d="M6.5 22.8 L10.9 13.0" stroke-width=".4"/><rect x="19.5" y="-6.5" width="13.0" height="6.5" fill="none"/><rect x="19.5" y="0.0" width="6.5" height="13.0" fill="none"/><path d="M19.5 3.2 L21.0 0.0" stroke-width=".4"/><path d="M19.5 6.5 L22.4 0.0" stroke-width=".4"/><path d="M19.5 9.8 L23.9 0.0" stroke-width=".4"/><rect x="32.5" y="-19.5" width="13.0" height="6.5" fill="none"/><rect x="32.5" y="-13.0" width="6.5" height="13.0" fill="none"/><path d="M32.5 -9.8 L34.0 -13.0" stroke-width=".4"/><path d="M32.5 -6.5 L35.4 -13.0" stroke-width=".4"/><path d="M32.5 -3.2 L36.9 -13.0" stroke-width=".4"/><rect x="45.5" y="-32.5" width="13.0" height="6.5" fill="none"/><rect x="45.5" y="-26.0" width="6.5" height="13.0" fill="none"/><path d="M45.5 -22.8 L47.0 -26.0" stroke-width=".4"/><path d="M45.5 -19.5 L48.4 -26.0" stroke-width=".4"/><path d="M45.5 -16.2 L49.9 -26.0" stroke-width=".4"/><rect x="-26.0" y="52.0" width="13.0" height="6.5" fill="none"/><rect x="-13.0" y="39.0" width="13.0" height="6.5" fill="none"/><rect x="-13.0" y="45.5" width="6.5" height="13.0" fill="none"/><path d="M-13.0 48.8 L-11.5 45.5" stroke-width=".4"/><path d="M-13.0 52.0 L-10.1 45.5" stroke-width=".4"/><path d="M-13.0 55.2 L-8.6 45.5" stroke-width=".4"/><rect x="0.0" y="26.0" width="13.0" height="6.5" fill="none"/><rect x="0.0" y="32.5" width="6.5" height="13.0" fill="none"/><path d="M0.0 35.8 L1.5 32.5" stroke-width=".4"/><path d="M0.0 39.0 L2.9 32.5" stroke-width=".4"/><path d="M0.0 42.2 L4.4 32.5" stroke-width=".4"/><rect x="13.0" y="13.0" width="13.0" height="6.5" fill="none"/><rect x="13.0" y="19.5" width="6.5" height="13.0" fill="none"/><path d="M13.0 22.8 L14.5 19.5" stroke-width=".4"/><path d="M13.0 26.0 L15.9 19.5" stroke-width=".4"/><path d="M13.0 29.2 L17.4 19.5" stroke-width=".4"/><rect x="26.0" y="0.0" width="13.0" height="6.5" fill="none"/><rect x="26.0" y="6.5" width="6.5" height="13.0" fill="none"/><path d="M26.0 9.8 L27.5 6.5" stroke-width=".4"/><path d="M26.0 13.0 L28.9 6.5" stroke-width=".4"/><path d="M26.0 16.2 L30.4 6.5" stroke-width=".4"/><rect x="39.0" y="-13.0" width="13.0" height="6.5" fill="none"/><rect x="39.0" y="-6.5" width="6.5" height="13.0" fill="none"/><path d="M39.0 -3.2 L40.5 -6.5" stroke-width=".4"/><path d="M39.0 0.0 L41.9 -6.5" stroke-width=".4"/><path d="M39.0 3.2 L43.4 -6.5" stroke-width=".4"/><rect x="52.0" y="-26.0" width="13.0" height="6.5" fill="none"/><rect x="52.0" y="-19.5" width="6.5" height="13.0" fill="none"/><path d="M52.0 -16.2 L53.5 -19.5" stroke-width=".4"/><path d="M52.0 -13.0 L54.9 -19.5" stroke-width=".4"/><path d="M52.0 -9.8 L56.4 -19.5" stroke-width=".4"/><rect x="-6.5" y="45.5" width="13.0" height="6.5" fill="none"/><rect x="-6.5" y="52.0" width="6.5" height="13.0" fill="none"/><path d="M-6.5 55.2 L-5.0 52.0" stroke-width=".4"/><path d="M-6.5 58.5 L-3.6 52.0" stroke-width=".4"/><path d="M-6.5 61.8 L-2.1 52.0" stroke-width=".4"/><rect x="6.5" y="32.5" width="13.0" height="6.5" fill="none"/><rect x="6.5" y="39.0" width="6.5" height="13.0" fill="none"/><path d="M6.5 42.2 L8.0 39.0" stroke-width=".4"/><path d="M6.5 45.5 L9.4 39.0" stroke-width=".4"/><path d="M6.5 48.8 L10.9 39.0" stroke-width=".4"/><rect x="19.5" y="19.5" width="13.0" height="6.5" fill="none"/><rect x="19.5" y="26.0" width="6.5" height="13.0" fill="none"/><path d="M19.5 29.2 L21.0 26.0" stroke-width=".4"/><path d="M19.5 32.5 L22.4 26.0" stroke-width=".4"/><path d="M19.5 35.8 L23.9 26.0" stroke-width=".4"/><rect x="32.5" y="6.5" width="13.0" height="6.5" fill="none"/><rect x="32.5" y="13.0" width="6.5" height="13.0" fill="none"/><path d="M32.5 16.2 L34.0 13.0" stroke-width=".4"/><path d="M32.5 19.5 L35.4 13.0" stroke-width=".4"/><path d="M32.5 22.8 L36.9 13.0" stroke-width=".4"/><rect x="45.5" y="-6.5" width="13.0" height="6.5" fill="none"/><rect x="45.5" y="0.0" width="6.5" height="13.0" fill="none"/><path d="M45.5 3.2 L47.0 0.0" stroke-width=".4"/><path d="M45.5 6.5 L48.4 0.0" stroke-width=".4"/><path d="M45.5 9.8 L49.9 0.0" stroke-width=".4"/><rect x="0.0" y="52.0" width="13.0" height="6.5" fill="none"/><rect x="13.0" y="39.0" width="13.0" height="6.5" fill="none"/><rect x="13.0" y="45.5" width="6.5" height="13.0" fill="none"/><path d="M13.0 48.8 L14.5 45.5" stroke-width=".4"/><path d="M13.0 52.0 L15.9 45.5" stroke-width=".4"/><path d="M13.0 55.2 L17.4 45.5" stroke-width=".4"/><rect x="26.0" y="26.0" width="13.0" height="6.5" fill="none"/><rect x="26.0" y="32.5" width="6.5" height="13.0" fill="none"/><path d="M26.0 35.8 L27.5 32.5" stroke-width=".4"/><path d="M26.0 39.0 L28.9 32.5" stroke-width=".4"/><path d="M26.0 42.2 L30.4 32.5" stroke-width=".4"/><rect x="39.0" y="13.0" width="13.0" height="6.5" fill="none"/><rect x="39.0" y="19.5" width="6.5" height="13.0" fill="none"/><path d="M39.0 22.8 L40.5 19.5" stroke-width=".4"/><path d="M39.0 26.0 L41.9 19.5" stroke-width=".4"/><path d="M39.0 29.2 L43.4 19.5" stroke-width=".4"/><rect x="52.0" y="0.0" width="13.0" height="6.5" fill="none"/><rect x="52.0" y="6.5" width="6.5" height="13.0" fill="none"/><path d="M52.0 9.8 L53.5 6.5" stroke-width=".4"/><path d="M52.0 13.0 L54.9 6.5" stroke-width=".4"/><path d="M52.0 16.2 L56.4 6.5" stroke-width=".4"/><rect x="19.5" y="45.5" width="13.0" height="6.5" fill="none"/><rect x="19.5" y="52.0" width="6.5" height="13.0" fill="none"/><path d="M19.5 55.2 L21.0 52.0" stroke-width=".4"/><path d="M19.5 58.5 L22.4 52.0" stroke-width=".4"/><path d="M19.5 61.8 L23.9 52.0" stroke-width=".4"/><rect x="32.5" y="32.5" width="13.0" height="6.5" fill="none"/><rect x="32.5" y="39.0" width="6.5" height="13.0" fill="none"/><path d="M32.5 42.2 L34.0 39.0" stroke-width=".4"/><path d="M32.5 45.5 L35.4 39.0" stroke-width=".4"/><path d="M32.5 48.8 L36.9 39.0" stroke-width=".4"/><rect x="45.5" y="19.5" width="13.0" height="6.5" fill="none"/><rect x="45.5" y="26.0" width="6.5" height="13.0" fill="none"/><path d="M45.5 29.2 L47.0 26.0" stroke-width=".4"/><path d="M45.5 32.5 L48.4 26.0" stroke-width=".4"/><path d="M45.5 35.8 L49.9 26.0" stroke-width=".4"/><rect x="26.0" y="52.0" width="13.0" height="6.5" fill="none"/><rect x="39.0" y="39.0" width="13.0" height="6.5" fill="none"/><rect x="39.0" y="45.5" width="6.5" height="13.0" fill="none"/><path d="M39.0 48.8 L40.5 45.5" stroke-width=".4"/><path d="M39.0 52.0 L41.9 45.5" stroke-width=".4"/><path d="M39.0 55.2 L43.4 45.5" stroke-width=".4"/><rect x="52.0" y="26.0" width="13.0" height="6.5" fill="none"/><rect x="52.0" y="32.5" width="6.5" height="13.0" fill="none"/><path d="M52.0 35.8 L53.5 32.5" stroke-width=".4"/><path d="M52.0 39.0 L54.9 32.5" stroke-width=".4"/><path d="M52.0 42.2 L56.4 32.5" stroke-width=".4"/><rect x="45.5" y="45.5" width="13.0" height="6.5" fill="none"/><rect x="45.5" y="52.0" width="6.5" height="13.0" fill="none"/><path d="M45.5 55.2 L47.0 52.0" stroke-width=".4"/><path d="M45.5 58.5 L48.4 52.0" stroke-width=".4"/><path d="M45.5 61.8 L49.9 52.0" stroke-width=".4"/><rect x="52.0" y="52.0" width="13.0" height="6.5" fill="none"/></g></g><circle cx="78" cy="332" r="36" fill="none" stroke="#3d3d3d" stroke-width="1.2" filter="url(#pencil)"/>
<text x="126" y="328" font-size="16" fill="#3d3d3d" font-family="Bradley Hand, Noteworthy, cursive">Detail A</text><text x="126" y="348" font-size="14" fill="#6d6d6d" font-family="Bradley Hand, Noteworthy, cursive">herringbone, oak</text>
<text x="540" y="356" text-anchor="middle" font-size="15" fill="#3d3d3d" font-family="Bradley Hand, Noteworthy, cursive">install plan, sheet 1 of 1</text>
<path d="M466 364 Q540 368 614 362" fill="none" stroke="#3d3d3d" stroke-width="1.2" stroke-linecap="round" filter="url(#pencil)"/>
</g></svg>